<svg xmlns="http://www.w3.org/2000/svg" viewBox="0 0 16 16"><g id="Icons" fill="none" fill-rule="evenodd" stroke="none" stroke-width="1"><g id="Icon/Right"><path id="Combined-Shape" fill="rgba(0,0,0,.75)" d="M6.29289322,2.29289322 C6.68341751,1.90236893 7.31658249,1.90236893 7.70710678,2.29289322 C8.09763107,2.68341751 8.09763107,3.31658249 7.70710678,3.70710678 L7.70710678,3.70710678 L4.414,7 L14,7 C14.5128358,7 14.9355072,7.38604019 14.9932723,7.88337887 L15,8 C15,8.55228475 14.5522847,9 14,9 L14,9 L4.414,9 L7.70710678,12.2928932 C8.06759074,12.6533772 8.09532028,13.2206082 7.79029539,13.6128994 L7.70710678,13.7071068 C7.31658249,14.0976311 6.68341751,14.0976311 6.29289322,13.7071068 L6.29289322,13.7071068 L1.29289322,8.70710678 C0.902368927,8.31658249 0.902368927,7.68341751 1.29289322,7.29289322 L1.29289322,7.29289322 Z" transform="translate(8.000000, 8.000000) scale(-1, 1) translate(-8.000000, -8.000000)"/></g></g></svg>